<svg id="Layer_1" data-name="Layer 1" xmlns="http://www.w3.org/2000/svg" viewBox="0 0 160 100"><defs><style>.cls-1{fill:#010101;}</style></defs><title>Artboard 1</title><path id="_Compound_Path_" data-name="&lt;Compound Path&gt;" class="cls-1" d="M87.74,18.95H86.23v-4.4h1.51a.81.81,0,0,0,0-1.62H86.23v-.54a.75.75,0,0,0,0-.08v-.45A4.91,4.91,0,0,0,82.1,7V5.93a.81.81,0,0,0-1.62,0V7a4.91,4.91,0,0,0-4.12,4.84v1.07H74.83a.81.81,0,0,0,0,1.62h1.53v4.4H74.83a.81.81,0,0,0,0,1.62h1.53v.76s0,0,0,0V37.53h0v7.29A4.92,4.92,0,0,0,77.56,48l2.65,3.08-2.88,3.33A2.58,2.58,0,0,0,77,57.33l3.39,6.58a1,1,0,0,0,.9.55h0a1,1,0,0,0,.9-.55l3.38-6.59a2.58,2.58,0,0,0-.34-2.87l-2.87-3.33L85,48a4.92,4.92,0,0,0,1.2-3.22V21.39s0,0,0,0v-.79h1.51a.81.81,0,0,0,0-1.62Zm-3.14,18L78,44.59V38.13L84.6,30.5ZM78,20.57h5.64L78,27.11Zm0-8.2v-.51a3.28,3.28,0,0,1,3.11-3.28h.39a3.29,3.29,0,0,1,3.11,3.28v1.07H78Zm6.63,2.18v4.4h-.92c-1.18,0-3,0-5.7,0V14.55ZM78,29.59l6.61-7.67V28L78,35.66Zm6,25.92a1,1,0,0,1,.13,1.08l-2,4v-2a.81.81,0,1,0-1.62,0v2l-2-4a1,1,0,0,1,.13-1.08l2.72-3.15ZM83.8,47l-2.51,2.9L78.79,47a3.3,3.3,0,0,1-.33-.46l6.14-7.11v5.42A3.29,3.29,0,0,1,83.8,47Z"/><g id="_Group_" data-name="&lt;Group&gt;"><path id="_Path_" data-name="&lt;Path&gt;" class="cls-1" d="M7.85,80.29H3.25V72.54a.94.94,0,0,0-.95-.95,1,1,0,0,0-1,.95v8.54a1,1,0,0,0,1,1H7.85a.88.88,0,1,0,0-1.75Z"/><path id="_Path_2" data-name="&lt;Path&gt;" class="cls-1" d="M18.1,71.59a1,1,0,0,0-1,.95v8.63a1,1,0,0,0,1.91,0V72.54A.94.94,0,0,0,18.1,71.59Z"/><path id="_Path_3" data-name="&lt;Path&gt;" class="cls-1" d="M36.59,76.2H33.73a.84.84,0,1,0,0,1.68h2v1.84a4.19,4.19,0,0,1-2.43.75,3.38,3.38,0,0,1-3.44-3.62v0a3.44,3.44,0,0,1,3.28-3.57,3.85,3.85,0,0,1,2.46.8,1,1,0,0,0,.59.21,1,1,0,0,0,.95-.95,1,1,0,0,0-.39-.78,5.63,5.63,0,0,0-3.54-1.05,5.3,5.3,0,0,0-5.35,5.37v0a5.13,5.13,0,0,0,5.38,5.34A6.63,6.63,0,0,0,36.9,81.1a1.31,1.31,0,0,0,.66-1.19V77.16A1,1,0,0,0,36.59,76.2Z"/><path id="_Path_4" data-name="&lt;Path&gt;" class="cls-1" d="M54.07,71.59a.94.94,0,0,0-.95.95v3.4H48.32v-3.4a1,1,0,0,0-1.91,0v8.63a1,1,0,0,0,1.91,0V77.71h4.79v3.45a1,1,0,0,0,1.91,0V72.54A1,1,0,0,0,54.07,71.59Z"/><path id="_Path_5" data-name="&lt;Path&gt;" class="cls-1" d="M71.08,71.66H64.26a.89.89,0,0,0,0,1.78H66.7v7.72a1,1,0,0,0,1.93,0V73.44h2.46a.89.89,0,0,0,0-1.78Z"/><path id="_Path_6" data-name="&lt;Path&gt;" class="cls-1" d="M88,71.59a.94.94,0,0,0-.95.95v3.4h-4.8v-3.4a1,1,0,0,0-1.91,0v8.63a1,1,0,0,0,1.91,0V77.71H87v3.45a1,1,0,0,0,1.91,0V72.54A1,1,0,0,0,88,71.59Z"/><path id="_Compound_Path_2" data-name="&lt;Compound Path&gt;" class="cls-1" d="M103,71.49a5.35,5.35,0,0,0-5.44,5.37v0A5.26,5.26,0,0,0,103,82.22a5.35,5.35,0,0,0,5.44-5.37v0A5.26,5.26,0,0,0,103,71.49Zm3.41,5.4A3.41,3.41,0,0,1,103,80.44a3.34,3.34,0,0,1-2.47-1.05,3.68,3.68,0,0,1-1-2.53v0A3.42,3.42,0,0,1,103,73.25a3.34,3.34,0,0,1,2.47,1.06,3.7,3.7,0,0,1,1,2.54Z"/><path id="_Path_7" data-name="&lt;Path&gt;" class="cls-1" d="M124.94,71.59a1,1,0,0,0-1,.95v5.09c0,1.8-.9,2.79-2.53,2.79s-2.54-1-2.54-2.87v-5a1,1,0,0,0-1.91,0v5.09c0,2.91,1.61,4.57,4.43,4.57s4.47-1.7,4.47-4.66v-5A.94.94,0,0,0,124.94,71.59Z"/><path id="_Path_8" data-name="&lt;Path&gt;" class="cls-1" d="M138.92,76c-2.07-.49-2.41-.86-2.41-1.56v0c0-.7.65-1.16,1.62-1.16a4.25,4.25,0,0,1,2.34.77.94.94,0,0,0,.5.14.9.9,0,0,0,.9-.89.87.87,0,0,0-.42-.77,5.75,5.75,0,0,0-3.29-1c-2.1,0-3.56,1.25-3.56,3v0c0,1.92,1.22,2.58,3.46,3.12,1.94.45,2.28.85,2.28,1.52v0c0,.75-.69,1.24-1.77,1.24a4.39,4.39,0,0,1-2.84-1,.9.9,0,0,0-.56-.17.89.89,0,0,0-.91.89.9.9,0,0,0,.37.73,6.48,6.48,0,0,0,3.89,1.3c2.26,0,3.72-1.23,3.72-3.12v0C142.25,77.17,140.92,76.47,138.92,76Z"/><path id="_Path_9" data-name="&lt;Path&gt;" class="cls-1" d="M157.89,80.32h-5.1V77.67h4.36a.85.85,0,0,0,.86-.85.87.87,0,0,0-.86-.88h-4.36V73.38h5a.86.86,0,0,0,.86-.86.87.87,0,0,0-.86-.86h-6a1,1,0,0,0-1,1v8.45a1,1,0,0,0,1,1h6a.86.86,0,0,0,.86-.86A.87.87,0,0,0,157.89,80.32Z"/></g><g id="_Group_2" data-name="&lt;Group&gt;"><path id="_Compound_Path_3" data-name="&lt;Compound Path&gt;" class="cls-1" d="M44.57,90a.46.46,0,0,1,.47-.47h1.62a1.78,1.78,0,0,1,2,1.77h0c0,1.19-1,1.81-2.12,1.81H45.5v1.28a.46.46,0,0,1-.93,0Zm2,2.28c.7,0,1.14-.39,1.14-.94v0c0-.62-.45-.94-1.14-.94H45.5v1.91Z"/><path id="_Compound_Path_4" data-name="&lt;Compound Path&gt;" class="cls-1" d="M52.56,92.62V90a.46.46,0,0,1,.93,0v2.59c0,1,.51,1.5,1.34,1.5s1.33-.49,1.33-1.47V90a.46.46,0,0,1,.93,0v2.58A2.11,2.11,0,0,1,54.81,95,2.09,2.09,0,0,1,52.56,92.62Z"/><path id="_Compound_Path_5" data-name="&lt;Compound Path&gt;" class="cls-1" d="M61.39,90a.46.46,0,0,1,.47-.47h1.91a1.91,1.91,0,0,1,1.38.47,1.19,1.19,0,0,1,.36.88v0a1.26,1.26,0,0,1-.76,1.18A1.3,1.3,0,0,1,65.8,93.4h0c0,.94-.78,1.45-2,1.45h-2a.46.46,0,0,1-.47-.47Zm2.19,1.76c.6,0,1-.23,1-.72h0c0-.42-.33-.67-.93-.67H62.3V91.8ZM63.85,94c.64,0,1-.25,1-.73v0c0-.45-.36-.71-1.09-.71H62.3V94Z"/><path id="_Compound_Path_6" data-name="&lt;Compound Path&gt;" class="cls-1" d="M69.87,90a.46.46,0,0,1,.93,0v4h2.4a.42.42,0,0,1,0,.85H70.34a.46.46,0,0,1-.47-.47Z"/><path id="_Compound_Path_7" data-name="&lt;Compound Path&gt;" class="cls-1" d="M77.62,90a.46.46,0,0,1,.93,0v4.45a.46.46,0,0,1-.93,0Z"/><path id="_Compound_Path_8" data-name="&lt;Compound Path&gt;" class="cls-1" d="M82.85,94.28a.44.44,0,0,1-.18-.36.45.45,0,0,1,.71-.35,2.3,2.3,0,0,0,1.48.54c.57,0,.94-.27.94-.67h0c0-.38-.21-.58-1.19-.81S82.84,92,82.84,91h0a1.62,1.62,0,0,1,1.81-1.54,2.91,2.91,0,0,1,1.68.49.42.42,0,0,1,.2.37.43.43,0,0,1-.44.43.45.45,0,0,1-.24-.07,2.21,2.21,0,0,0-1.22-.4c-.54,0-.86.28-.86.63h0c0,.41.24.59,1.26.83s1.69.67,1.69,1.55v0c0,1-.78,1.58-1.89,1.58A3.3,3.3,0,0,1,82.85,94.28Z"/><path id="_Compound_Path_9" data-name="&lt;Compound Path&gt;" class="cls-1" d="M90.85,90a.47.47,0,0,1,.93,0v1.78H94.3V90a.46.46,0,0,1,.93,0v4.45a.46.46,0,0,1-.93,0V92.64H91.78v1.81a.47.47,0,0,1-.93,0Z"/><path id="_Compound_Path_10" data-name="&lt;Compound Path&gt;" class="cls-1" d="M99.67,90a.46.46,0,0,1,.93,0v4.45a.46.46,0,0,1-.93,0Z"/><path id="_Compound_Path_11" data-name="&lt;Compound Path&gt;" class="cls-1" d="M105,90a.47.47,0,0,1,.47-.47h.1a.59.59,0,0,1,.48.27l2.65,3.43V90a.46.46,0,0,1,.91,0v4.45a.45.45,0,0,1-.45.46h0a.59.59,0,0,1-.48-.28l-2.72-3.52v3.36a.46.46,0,0,1-.92,0Z"/><path id="_Compound_Path_12" data-name="&lt;Compound Path&gt;" class="cls-1" d="M113.79,92.24h0a2.7,2.7,0,0,1,2.73-2.74,2.87,2.87,0,0,1,1.81.54.47.47,0,0,1,.19.38.46.46,0,0,1-.46.46.48.48,0,0,1-.29-.11,2,2,0,0,0-1.29-.42,1.79,1.79,0,0,0-1.72,1.87h0a1.77,1.77,0,0,0,1.8,1.89,2.16,2.16,0,0,0,1.28-.4v-1h-1a.41.41,0,0,1-.42-.4.41.41,0,0,1,.42-.41h1.47a.46.46,0,0,1,.47.47v1.41a.64.64,0,0,1-.33.59,3.37,3.37,0,0,1-1.88.57A2.63,2.63,0,0,1,113.79,92.24Z"/></g></svg>