<svg id="Layer_1" data-name="Layer 1" xmlns="http://www.w3.org/2000/svg" viewBox="0 0 355 87"><defs><style>.cls-1{fill:#020202;}</style></defs><title>Artboard 1</title><path class="cls-1" d="M12.81,3.34h29c.17,0,.1.87,0,.87h-6s-1.7-.05-1.15.87c.1.17,20.48,55.85,20.48,55.85s.33,1,.66,1c0,0,18.07-55.9,18.13-56,.17-.55.82-1.81-.27-1.81H67.07c-.1,0-.1-.87,0-.87H82.63c.1,0,.1.87,0,.87H76.86c-1.57,0-1.57.44-1.86,1.26-.17.44-25.19,78.46-25.19,78.46l-.22-.66C38.92,52.58,22.49,10,21.18,5.43c-.39-1.34-.61-1.34-1.37-1.34H12.86C12.64,4.18,12.64,3.34,12.81,3.34Z"/><path class="cls-1" d="M88.19,42.64c0-22.33,4.27-40.56,20.15-40.56,17,0,20.37,19,20.37,40.57,0,22.33-3.23,41.61-20.26,41.61C90.22,84.2,88.19,66.1,88.19,42.64Zm19.94,42.21c16.92.05,35.15-18.67,35.2-41.77.05-24.25-17.52-41.5-34.93-41.67C90.57,1.25,73.53,20.85,73.53,43.08c0,23,16.14,41.72,34.59,41.78Z"/><path class="cls-1" d="M191.18,50.42h6.62s1.21-.1,1.21.49V69.8c0,14.57-14.5,14.7-18.61,14.2-15.17-1.7-15.49-33-15.55-41.23-.21-22.33,3.3-41.78,18.55-41,18.13.93,22.83,26.88,23.16,28,.6.22.6-.27.6-.27l.05-28.34s-.1-.22-.49.1l-.44.44c-8,8.22-12-.39-23.66-.77-14.35-.44-32.2,19.44-32.41,42.38s14.95,40.93,31.49,41.5c9,.33,8.82-2.1,19.88-5.58,6.79-2.1,10,2.47,10.24,4.38a.29.29,0,0,0,.49-.22V51c0-.66.87-.55.87-.55h6.13c.17,0,.17-.87,0-.87H191.18C190.91,49.55,190.91,50.42,191.18,50.42Z"/><path class="cls-1" d="M339.77,3.34V32.41c0,.17-.55.17-.55,0s.55-28.23-25.56-28.23h-9.8c-.55,0-.87.1-.87.49V40.91c0,.33.33.55.87.55h3.29c15.49,0,14.29-15.55,14.29-15.74s.6-.17.6,0,0,32.68,0,32.8-.44.17-.44,0-.39-16.2-14.79-16.2H304c-.49,0-.87.17-.87.55V82c0,.27.33.55.87.55,2.19,0,7.83,0,9.36.05,28,.05,27.66-30,27.66-30.16s.71-.17.71,0v31.1H282.57c-.17,0-.17-.87,0-.87h5.91c.55,0,.87-.17.87-.55V4.65c0-.49-.66-.55-.87-.55H275.4s-.87,0-.87.49v58.7c0,16.43-12.59,21.74-21.63,21.9h0c-10.67.05-29.84-1.75-29.84-25.41,0,0-.05-53.82-.05-54.58-.05-1.15-1.48-1-1.48-1h-6.24c-.22,0-.17-.87,0-.87h29.5c.17,0,.1.87,0,.87h-6.3s-1.92-.1-1.92,1.15c0,1.81.05,60.06.05,62.09,0,9.09,5.14,17.14,16.32,16.92,8.7-.17,20.86-5.31,20.8-21.07V4.54c0-.44-.93-.49-.93-.49h-8.22c-.17,0-.17-.82,0-.82C264.66,3.34,339.77,3.34,339.77,3.34Z"/><path class="cls-1" d="M15,8.1a.92.92,0,0,1-.55.17A1.15,1.15,0,0,1,13.73,8a1,1,0,0,1-.27-.77,1.19,1.19,0,0,1,.27-.77.82.82,0,0,1,.68-.34,1.6,1.6,0,0,1,.49.1.62.62,0,0,1,.39.66H15a.47.47,0,0,0-.17-.33.49.49,0,0,0-.39-.17.6.6,0,0,0-.55.33,1.29,1.29,0,0,0-.1.44,1.1,1.1,0,0,0,.17.6.54.54,0,0,0,.49.22.59.59,0,0,0,.33-.1A.5.5,0,0,0,15,7.56h.33A1.13,1.13,0,0,1,15,8.1Zm-1.69-2a1.41,1.41,0,0,0-.44,1,1.76,1.76,0,0,0,.44,1.15,1.41,1.41,0,0,0,1,.44,1.5,1.5,0,0,0,1.53-1.47h0V7.1a1.53,1.53,0,0,0-.44-1,1.41,1.41,0,0,0-1-.44,1.33,1.33,0,0,0-1,.44Zm2.41,2.41a1.7,1.7,0,0,1-1.3.54,1.87,1.87,0,0,1-1.86-1.86,1.78,1.78,0,0,1,.55-1.31,1.7,1.7,0,0,1,1.31-.55,1.78,1.78,0,0,1,1.31.55,1.7,1.7,0,0,1,.55,1.31,1.82,1.82,0,0,1-.55,1.31Z"/><path class="cls-1" d="M93.07,43.08a2.17,2.17,0,0,1-1.48.39h-.82v2H90V40h1.58a2.15,2.15,0,0,1,1.53.39,1.83,1.83,0,0,1,.66,1.36A1.91,1.91,0,0,1,93.07,43.08Zm-.6-2.1a1.77,1.77,0,0,0-1-.17h-.78v2h.77a1.68,1.68,0,0,0,.93-.17.9.9,0,0,0,.44-.82.91.91,0,0,0-.39-.89Z"/><path class="cls-1" d="M96.91,45.6a2.84,2.84,0,1,1,.06,0Zm0-4.93a2.1,2.1,0,1,0,2.1,2.1h0A2.1,2.1,0,0,0,96.91,40.67Z"/><path class="cls-1" d="M103,43.42l1.31,2.1h-1l-1.21-2h-.77v2h-.86V40H102a2.85,2.85,0,0,1,1.53.27,1.79,1.79,0,0,1,.82,1.48A1.65,1.65,0,0,1,103,43.42Zm.1-2.47a1.75,1.75,0,0,0-1-.22h-.77v2.1h.93c.87,0,1.26-.49,1.26-1a.85.85,0,0,0-.44-.87Z"/><path class="cls-1" d="M106.59,40.78v4.76h-.87V40.78h-1.26V40h3.36v.77Z"/><path class="cls-1" d="M111.8,45a1.85,1.85,0,0,1-1.43.66,1.83,1.83,0,0,1-1.43-.66,2.16,2.16,0,0,1-.49-1.53V40h.82v3.39a1.37,1.37,0,0,0,.27,1,1,1,0,0,0,1.7,0,1.63,1.63,0,0,0,.22-1V40h.82v3.39A2.2,2.2,0,0,1,111.8,45Z"/><path class="cls-1" d="M118.86,43a2.9,2.9,0,1,1-.27-1.5h-1a2,2,0,0,0-1.7-.87,2.1,2.1,0,0,0,0,4.2,1.88,1.88,0,0,0,1.92-1.43H115.9v-.71h2.9A.49.49,0,0,1,118.86,43Z"/><path class="cls-1" d="M123.13,45.5l-.6-1.36h-2.3l-.6,1.36h-.93l2.62-5.64h.1L124,45.5Zm-1.75-4-1,2h1.81Z"/><path class="cls-1" d="M124.39,45.5V40h.82v4.76h2v.77h-2.84Z"/></svg>